<?xml version="1.0"?>
<svg xmlns="http://www.w3.org/2000/svg" xmlns:xlink="http://www.w3.org/1999/xlink" xmlns:svgjs="http://svgjs.com/svgjs" version="1.1" width="512" height="512" x="0" y="0" viewBox="0 0 64 64" style="enable-background:new 0 0 512 512" xml:space="preserve" class=""><g><g xmlns="http://www.w3.org/2000/svg" fill="#f4b2b0"><path d="m58 2h-52a4 4 0 0 0 -4 4v7h60v-7a4 4 0 0 0 -4-4zm-30 7h-20a2 2 0 0 1 0-4h20a2 2 0 0 1 0 4z" fill="#f1494f" data-original="#f4b2b0" style=""/><path d="m11 24 4 4 10-10-2-2-8 8-2-2.001z" fill="#f1494f" data-original="#f4b2b0" style=""/><path d="m11 42 4 4 10-10-2-2-8 8-2-2.001z" fill="#f1494f" data-original="#f4b2b0" style=""/><path d="m35 52h22v6h-22z" fill="#f1494f" data-original="#f4b2b0" style=""/></g><g xmlns="http://www.w3.org/2000/svg" fill="#b3404a"><path d="m58 1h-52a5.006 5.006 0 0 0 -5 5v52a5.006 5.006 0 0 0 5 5h52a5.006 5.006 0 0 0 5-5v-52a5.006 5.006 0 0 0 -5-5zm-52 2h52a3 3 0 0 1 3 3v6h-58v-6a3 3 0 0 1 3-3zm52 58h-52a3 3 0 0 1 -3-3v-44h58v44a3 3 0 0 1 -3 3z" fill="#f1494f" data-original="#b3404a" style="" class=""/><path d="m8 10h20a3 3 0 0 0 0-6h-20a3 3 0 0 0 0 6zm0-4h20a1 1 0 0 1 0 2h-20a1 1 0 0 1 0-2z" fill="#f1494f" data-original="#b3404a" style="" class=""/><circle cx="57" cy="7" r="2" fill="#f1494f" data-original="#b3404a" style="" class=""/><circle cx="51" cy="7" r="2" fill="#f1494f" data-original="#b3404a" style="" class=""/><path d="m23.707 15.293a1 1 0 0 0 -1.414 0l-2.707 2.707h-11.586a1 1 0 0 0 -1 1v12a1 1 0 0 0 1 1h12a1 1 0 0 0 1-1v-7.586l4.707-4.707a1 1 0 0 0 0-1.414zm-4.707 14.707h-10v-10h8.586l-2.586 2.586-1.292-1.294a1.032 1.032 0 0 0 -1.416 0l-2 2a1 1 0 0 0 0 1.414l4 4a1 1 0 0 0 1.414 0l3.294-3.292zm-4-3.414-2.586-2.586.586-.586 1.292 1.293a1 1 0 0 0 1.415 0l7.293-7.293.586.586z" fill="#f1494f" data-original="#b3404a" style="" class=""/><path d="m23.707 33.293a1 1 0 0 0 -1.414 0l-2.707 2.707h-11.586a1 1 0 0 0 -1 1v12a1 1 0 0 0 1 1h12a1 1 0 0 0 1-1v-7.586l4.707-4.707a1 1 0 0 0 0-1.414zm-4.707 14.707h-10v-10h8.586l-2.586 2.586-1.292-1.294a1.032 1.032 0 0 0 -1.416 0l-2 2a1 1 0 0 0 0 1.414l4 4a1 1 0 0 0 1.414 0l3.294-3.292zm-4-3.414-2.586-2.586.586-.586 1.292 1.293a1 1 0 0 0 1.415 0l7.293-7.293.586.586z" fill="#f1494f" data-original="#b3404a" style="" class=""/><path d="m27 28h30v2h-30z" fill="#f1494f" data-original="#b3404a" style="" class=""/><path d="m31 24h26v2h-26z" fill="#f1494f" data-original="#b3404a" style="" class=""/><path d="m27 24h2v2h-2z" fill="#f1494f" data-original="#b3404a" style="" class=""/><path d="m27 46h30v2h-30z" fill="#f1494f" data-original="#b3404a" style="" class=""/><path d="m31 42h26v2h-26z" fill="#f1494f" data-original="#b3404a" style="" class=""/><path d="m27 42h2v2h-2z" fill="#f1494f" data-original="#b3404a" style="" class=""/><path d="m57 51h-22a1 1 0 0 0 -1 1v6a1 1 0 0 0 1 1h22a1 1 0 0 0 1-1v-6a1 1 0 0 0 -1-1zm-1 6h-20v-4h20z" fill="#f1494f" data-original="#b3404a" style="" class=""/></g></g></svg>
