<?xml version="1.0"?>
<svg xmlns="http://www.w3.org/2000/svg" xmlns:xlink="http://www.w3.org/1999/xlink" xmlns:svgjs="http://svgjs.com/svgjs" version="1.1" width="512" height="512" x="0" y="0" viewBox="0 0 512 512" style="enable-background:new 0 0 512 512" xml:space="preserve" class=""><g><g xmlns="http://www.w3.org/2000/svg" id="XMLID_1820_"><g id="XMLID_314_"><path id="XMLID_317_" d="m227.728 210.488c3.905-3.905 3.905-10.237 0-14.143-3.905-3.904-10.237-3.904-14.143 0-1.246 1.247-2.702 1.433-3.459 1.433-.756 0-2.212-.186-3.458-1.433-3.905-3.904-10.237-3.904-14.143 0-3.905 3.905-3.905 10.237 0 14.143 4.853 4.853 11.227 7.278 17.602 7.278 6.374.001 12.748-2.425 17.601-7.278z" fill="#f1494f" data-original="#000000" style=""/><path id="XMLID_425_" d="m432.351 357.094c9.849-9.644 16.7-22.33 19.018-36.524 4.371 2.09 9.261 3.263 14.421 3.263 18.496 0 33.543-15.047 33.543-33.543v-82.641c0-33.97-27.636-61.605-61.605-61.605-28.75 0-53.076 19.516-59.782 46.633-32.614 4.043-57.946 31.91-57.946 65.6v32.31c-15.439-5.323-31.596-8.022-48.217-8.022h-19.783v-16.28c28.523-15.115 48-45.112 48-79.578v-42.841c20.071-5.522 34.863-23.924 34.863-45.726 0-17.333-9.46-33.073-24.215-41.358.65-13.249-4.256-26.187-13.841-35.771-13.443-13.443-33.6-17.408-50.932-10.583-10.667-6.84-22.906-10.428-35.749-10.428s-25.082 3.588-35.748 10.428c-17.332-6.82-37.488-2.857-50.932 10.584-9.584 9.585-14.491 22.522-13.84 35.771-14.755 8.285-24.215 24.025-24.215 41.358 0 21.709 14.668 40.046 34.609 45.653v42.913c0 34.466 19.477 64.463 48 79.578v16.28h-19.783c-81.727 0-148.217 66.491-148.217 148.218v71.217c0 5.522 4.477 10 10 10h85.241c5.523 0 10-4.478 10-10s-4.477-10-10-10h-75.241v-61.217c0-67.279 52.089-122.618 118.055-127.815 4.702 35.589 35.219 63.151 72.071 63.151 36.849 0 67.363-27.556 72.07-63.141 13.069 1.04 25.745 4.052 37.857 8.987.551 17.633 8.028 33.545 19.81 45.097-45.149 6.84-79.863 45.91-79.863 92.938v42h-74.76c-5.523 0-10 4.478-10 10s4.477 10 10 10h316.76c5.523 0 10-4.478 10-10v-52c0-46.954-34.604-85.976-79.649-92.906zm-92.351-71.956h92.247v24.739c0 25.433-20.691 46.123-46.123 46.123-25.433 0-46.124-20.69-46.124-46.123zm97.728-119.094c22.941 0 41.605 18.664 41.605 41.605v82.641c0 7.468-6.076 13.543-13.543 13.543-7.468 0-13.543-6.075-13.543-13.543v-32.013c0-32.185-23.118-59.058-53.618-64.922 5.832-16.102 21.191-27.311 39.099-27.311zm-97.728 92.233c0-25.433 20.691-46.124 46.124-46.124 25.432 0 46.123 20.691 46.123 46.124v6.86h-36.877c2.149-4.527 3.356-9.584 3.356-14.92 0-5.523-4.477-10-10-10s-10 4.477-10 10c0 8.227-6.693 14.92-14.921 14.92h-23.805zm-234.609-160.136c0-11.649 7.39-22.056 18.388-25.895 4.798-1.675 7.577-6.681 6.461-11.639-2.084-9.252.663-18.768 7.349-25.453 8.681-8.681 22.2-10.526 32.876-4.489 3.52 1.987 7.892 1.663 11.078-.824 8.241-6.438 18.125-9.841 28.583-9.841 10.459 0 20.343 3.403 28.585 9.841 3.186 2.488 7.557 2.814 11.078.824 10.677-6.037 24.196-4.19 32.875 4.489 6.686 6.686 9.434 16.201 7.35 25.453-1.116 4.958 1.663 9.964 6.46 11.639 10.999 3.839 18.388 14.245 18.388 25.895 0 15.124-12.304 27.428-27.427 27.428-12.961 0-24.258-9.195-26.864-21.864-.747-3.634-3.445-6.556-7.008-7.589-.919-.267-1.856-.396-2.786-.396-2.675 0-5.285 1.074-7.197 3.056-8.851 9.172-20.733 14.224-33.454 14.224-12.72 0-24.602-5.052-33.455-14.226-2.577-2.67-6.419-3.694-9.982-2.659-3.563 1.033-6.261 3.955-7.008 7.59-2.605 12.668-13.903 21.863-26.864 21.863-15.123 0-27.426-12.303-27.426-27.427zm34.609 88.566v-41.71c14.167-2.187 26.542-10.711 33.705-22.837 10.719 7.059 23.255 10.84 36.422 10.84s25.703-3.781 36.422-10.84c7.12 12.053 19.391 20.544 33.452 22.794v41.753c0 38.598-31.402 70-70 70s-70.001-31.402-70.001-70zm70.126 159.412c-25.943 0-47.553-18.84-51.906-43.554h19.78c5.523 0 10-4.478 10-10v-18.583c7.043 1.776 14.413 2.725 22 2.725s14.956-.948 22-2.725v18.583c0 5.522 4.477 10 10 10h20.033c-4.353 24.714-25.964 43.554-51.907 43.554zm281.874 145.881h-212v-42c0-40.804 33.196-74 74-74h64c40.804 0 74 33.196 74 74z" fill="#f1494f" data-original="#000000" style=""/><path id="XMLID_432_" d="m140.24 492c-2.63 0-5.21 1.069-7.07 2.93-1.86 1.86-2.93 4.44-2.93 7.07s1.07 5.21 2.93 7.069c1.86 1.86 4.44 2.931 7.07 2.931s5.21-1.07 7.07-2.931c1.86-1.859 2.93-4.439 2.93-7.069s-1.07-5.21-2.93-7.07c-1.86-1.861-4.44-2.93-7.07-2.93z" fill="#f1494f" data-original="#000000" style=""/></g></g></g></svg>
